<?xml version="1.0" encoding="utf-8"?>
<!-- Generator: Adobe Illustrator 16.0.0, SVG Export Plug-In . SVG Version: 6.00 Build 0)  -->
<!DOCTYPE svg PUBLIC "-//W3C//DTD SVG 1.1//EN" "http://www.w3.org/Graphics/SVG/1.1/DTD/svg11.dtd">
<svg version="1.1" id="Calque_1" xmlns="http://www.w3.org/2000/svg" xmlns:xlink="http://www.w3.org/1999/xlink" x="0px" y="0px"
	 width="203.365px" height="72.082px" viewBox="0 0 203.365 72.082" enable-background="new 0 0 203.365 72.082"
	 xml:space="preserve">
<g>
	<defs>
		<path id="SVGID_1_" d="M25.569,47.506c-0.501,1.149-1.081,2.273-1.493,3.454c-1.308,3.753-1.572,7.566-0.454,11.425
			c1.323,4.557,4.672,7.482,9.323,7.724c0.673,0.036,1.33,0.021,1.967-0.048c0.125-1.281,0.319-2.548,0.442-3.81
			c-1.467,0.167-3.001-0.22-4.26-1.199c-0.298-0.233-0.559-0.512-0.855-0.747c-0.682-0.545-0.695-1.351-0.801-2.102
			c-0.384-2.716,0.016-5.346,1.001-7.884c0.469-1.208,1.033-2.378,1.577-3.617l1.371-1.72c-1.822-1.741-3.496-3.712-5.623-4.906
			L25.569,47.506z"/>
	</defs>
	<clipPath id="SVGID_2_">
		<use xlink:href="#SVGID_1_"  overflow="visible"/>
	</clipPath>
	
		<linearGradient id="SVGID_3_" gradientUnits="userSpaceOnUse" x1="-130.4131" y1="519.8203" x2="-129.5698" y2="519.8203" gradientTransform="matrix(-15.4629 -26.7825 -26.7825 15.4629 11941.5 -11461.2969)">
		<stop  offset="0" style="stop-color:#1CA74B"/>
		<stop  offset="0.1229" style="stop-color:#1CA74B"/>
		<stop  offset="0.6626" style="stop-color:#1F76BB"/>
		<stop  offset="0.6676" style="stop-color:#1F76BC"/>
		<stop  offset="0.8827" style="stop-color:#155C83"/>
		<stop  offset="1" style="stop-color:#155C83"/>
	</linearGradient>
	<polygon clip-path="url(#SVGID_2_)" fill="url(#SVGID_3_)" points="25.717,75.711 11.216,50.594 32.142,38.513 46.643,63.628 	"/>
</g>
<g>
	<defs>
		<path id="SVGID_4_" d="M43.178,34.27c-5.061,1.017-9.476,3.263-13.083,7c-0.66,0.684-1.265,1.419-1.904,2.141l-0.426,0.667
			c2.126,1.194,3.801,3.165,5.623,4.906l1.313-1.649c1.879-1.786,4.015-3.161,6.484-3.981c2.392-0.794,4.806-0.98,7.216-0.092
			c4.128,1.521,6.959,5.521,7.116,9.972c0.074,2.118-0.258,4.194-0.581,6.273c-0.193,1.242-0.412,2.479-0.238,3.747
			c0.299,2.186,2.694,3.423,4.643,2.382c1.007-0.537,1.832-1.293,2.508-2.201c1.788-2.401,2.627-5.16,2.937-8.094
			c0.316-3.002,0.036-5.961-0.846-8.85c-0.762-2.495-1.833-4.848-3.517-6.866c-2.719-3.256-6.3-4.967-10.428-5.636
			c-0.825-0.134-1.649-0.193-2.472-0.193C46.068,33.795,44.62,33.981,43.178,34.27"/>
	</defs>
	<clipPath id="SVGID_5_">
		<use xlink:href="#SVGID_4_"  overflow="visible"/>
	</clipPath>
	
		<linearGradient id="SVGID_6_" gradientUnits="userSpaceOnUse" x1="-145.0283" y1="534.2021" x2="-144.185" y2="534.2021" gradientTransform="matrix(31.5699 -18.2269 -18.2269 -31.5699 14350.4688 14278.0313)">
		<stop  offset="0" style="stop-color:#1F76BC"/>
		<stop  offset="0.1426" style="stop-color:#1F7AB0"/>
		<stop  offset="0.3982" style="stop-color:#1E8391"/>
		<stop  offset="0.7351" style="stop-color:#1D935F"/>
		<stop  offset="0.8771" style="stop-color:#1C9A48"/>
		<stop  offset="1" style="stop-color:#1C9A48"/>
	</linearGradient>
	<polygon clip-path="url(#SVGID_5_)" fill="url(#SVGID_6_)" points="13.528,42.016 55.768,17.627 79.34,58.456 37.099,82.843 	"/>
</g>
<g>
	<defs>
		<path id="SVGID_7_" d="M23.85,22.116c-1.084,1.701-1.44,3.607-1.468,5.591c-0.007,2.398,0.691,4.764,1.884,6.385
			c1.37,1.863,3.308,2.397,5.413,1.453c2.162-0.968,3.646-2.615,4.556-4.774c1.027-2.434,1.377-4.938,0.428-7.474
			c-0.831-2.218-2.454-3.595-4.819-3.915c-0.354-0.048-0.698-0.071-1.032-0.071C26.747,19.311,25.054,20.225,23.85,22.116"/>
	</defs>
	<clipPath id="SVGID_8_">
		<use xlink:href="#SVGID_7_"  overflow="visible"/>
	</clipPath>
	
		<linearGradient id="SVGID_9_" gradientUnits="userSpaceOnUse" x1="-119.8359" y1="519.1436" x2="-118.9927" y2="519.1436" gradientTransform="matrix(-9.0972 -15.7568 -15.7568 9.0972 7122.3594 -6577.0391)">
		<stop  offset="0" style="stop-color:#1F76BC"/>
		<stop  offset="0.1426" style="stop-color:#1F7AB0"/>
		<stop  offset="0.3982" style="stop-color:#1E8391"/>
		<stop  offset="0.7351" style="stop-color:#1D935F"/>
		<stop  offset="0.8771" style="stop-color:#1C9A48"/>
		<stop  offset="1" style="stop-color:#1C9A48"/>
	</linearGradient>
	<polygon clip-path="url(#SVGID_8_)" fill="url(#SVGID_9_)" points="25.684,42.218 14.938,23.604 32.302,13.579 43.049,32.193 	"/>
</g>
<g>
	<defs>
		<path id="SVGID_10_" d="M8.664,4.864C6.66,6.35,5.351,8.374,4.353,10.613c-1.992,4.466-2.756,9.13-2.204,14.002
			c0.354,3.124,1.284,6.058,2.852,8.788c1.875,3.266,4.602,5.654,7.777,7.591c2.636,1.605,5.42,2.908,8.239,4.142
			c0.717,0.313,1.435,0.621,2.156,0.929c0.842,0.361,1.686,0.727,2.544,1.097l6.3,3.542c0.998,0.616,1.915,1.272,2.74,1.978
			c3.129,2.668,4.945,6.036,4.775,10.574c-0.011,0.305-0.15,0.656-0.342,0.894c-0.992,1.224-2.381,1.938-3.835,2.104
			c-0.123,1.262-0.317,2.528-0.442,3.81c1.962-0.214,3.736-0.968,5.233-2.515c3.027-3.128,3.662-7.933,1.556-12.018
			c-1.188-2.307-2.851-4.236-4.766-5.959c-0.004-0.003-0.008-0.006-0.011-0.01c-0.77-0.692-1.583-1.337-2.396-2.019l-6.545-4.218
			c-1.081-0.708-2.17-1.4-3.256-2.099c-1.433-0.922-2.859-1.854-4.243-2.847c-2.703-1.943-4.966-4.336-6.516-7.333
			c-2.39-4.62-2.839-9.546-2.105-14.592c0.417-2.853,1.141-5.659,1.72-8.489c0.178-0.873,0.406-1.746,0.483-2.628
			c0.092-1.092-0.546-1.734-1.637-1.812c-0.104-0.007-0.209-0.01-0.311-0.01C10.807,3.513,9.696,4.101,8.664,4.864"/>
	</defs>
	<clipPath id="SVGID_11_">
		<use xlink:href="#SVGID_10_"  overflow="visible"/>
	</clipPath>
	
		<linearGradient id="SVGID_12_" gradientUnits="userSpaceOnUse" x1="-150.1787" y1="529.8438" x2="-149.3356" y2="529.8438" gradientTransform="matrix(48.575 0 0 -48.575 7296.9375 25773.9375)">
		<stop  offset="0" style="stop-color:#1F76BC"/>
		<stop  offset="0.164" style="stop-color:#1F77B9"/>
		<stop  offset="0.3015" style="stop-color:#1F7CAE"/>
		<stop  offset="0.4294" style="stop-color:#1E839D"/>
		<stop  offset="0.5515" style="stop-color:#1E8E84"/>
		<stop  offset="0.6684" style="stop-color:#1D9C65"/>
		<stop  offset="0.7486" style="stop-color:#1CA74B"/>
		<stop  offset="0.933" style="stop-color:#1CA74B"/>
		<stop  offset="1" style="stop-color:#1CA74B"/>
	</linearGradient>
	<rect x="1.597" y="3.513" clip-path="url(#SVGID_11_)" fill="url(#SVGID_12_)" width="42.211" height="66.549"/>
</g>
<g>
	<path fill="#231F20" d="M86.688,21.525c0.875,0,1.589-0.346,2.145-1.038l1.141,1.175c-0.905,1.019-1.972,1.528-3.2,1.528
		s-2.24-0.388-3.034-1.164c-0.794-0.775-1.192-1.754-1.192-2.937s0.405-2.169,1.215-2.96c0.81-0.791,1.8-1.187,2.971-1.187
		c1.308,0,2.403,0.498,3.285,1.494l-1.106,1.255c-0.563-0.7-1.262-1.049-2.099-1.049c-0.669,0-1.242,0.219-1.717,0.656
		c-0.475,0.438-0.713,1.026-0.713,1.768c0,0.741,0.224,1.336,0.673,1.785S86.049,21.525,86.688,21.525z"/>
	<path fill="#231F20" d="M96.52,22.21c-0.692,0.654-1.504,0.981-2.436,0.981s-1.702-0.287-2.31-0.861
		c-0.608-0.574-0.913-1.344-0.913-2.31s0.31-1.734,0.93-2.304c0.62-0.57,1.352-0.855,2.196-0.855c0.844,0,1.561,0.255,2.15,0.764
		s0.884,1.209,0.884,2.099v0.913H92.55c0.053,0.335,0.228,0.608,0.525,0.821c0.296,0.213,0.631,0.319,1.004,0.319
		c0.601,0,1.095-0.201,1.483-0.604L96.52,22.21z M94.877,18.571c-0.236-0.198-0.523-0.297-0.861-0.297s-0.648,0.103-0.93,0.308
		c-0.281,0.206-0.445,0.483-0.49,0.833h2.692C95.25,19.05,95.113,18.769,94.877,18.571z"/>
	<path fill="#231F20" d="M99.965,19.678V23.1h-1.711v-6.137h1.711v0.685c0.517-0.525,1.099-0.787,1.745-0.787
		s1.188,0.228,1.625,0.684c0.437,0.457,0.656,1.065,0.656,1.825v3.73h-1.711v-3.468c0-0.943-0.346-1.414-1.038-1.414
		c-0.342,0-0.641,0.124-0.896,0.371S99.965,19.199,99.965,19.678z"/>
	<path fill="#231F20" d="M107.493,18.195v2.749c0,0.236,0.061,0.42,0.183,0.553s0.266,0.2,0.434,0.2c0.319,0,0.589-0.145,0.81-0.434
		l0.639,1.198c-0.533,0.487-1.093,0.73-1.683,0.73s-1.087-0.194-1.494-0.582c-0.407-0.388-0.61-0.916-0.61-1.585v-2.829h-0.719
		v-1.232h0.719v-1.836h1.722v1.836h1.483v1.232H107.493z"/>
	<path fill="#231F20" d="M113.698,18.469c-0.51,0-0.89,0.181-1.141,0.542c-0.251,0.361-0.377,0.838-0.377,1.432V23.1h-1.71v-6.137
		h1.71v0.81c0.221-0.25,0.497-0.463,0.827-0.639c0.331-0.175,0.668-0.266,1.01-0.273l0.012,1.608H113.698z"/>
	<path fill="#231F20" d="M120.474,22.21c-0.691,0.654-1.504,0.981-2.435,0.981c-0.932,0-1.702-0.287-2.311-0.861
		s-0.912-1.344-0.912-2.31s0.31-1.734,0.93-2.304c0.619-0.57,1.352-0.855,2.195-0.855c0.845,0,1.562,0.255,2.15,0.764
		c0.59,0.509,0.884,1.209,0.884,2.099v0.913h-4.471c0.053,0.335,0.228,0.608,0.524,0.821s0.631,0.319,1.004,0.319
		c0.601,0,1.095-0.201,1.482-0.604L120.474,22.21z M118.831,18.571c-0.235-0.198-0.522-0.297-0.86-0.297
		c-0.339,0-0.648,0.103-0.93,0.308c-0.282,0.206-0.445,0.483-0.491,0.833h2.692C119.204,19.05,119.067,18.769,118.831,18.571z"/>
	<path fill="#231F20" d="M127.677,23.191c-0.726,0-1.374-0.308-1.944-0.924c-0.57-0.616-0.855-1.38-0.855-2.293
		s0.277-1.66,0.833-2.241c0.555-0.582,1.205-0.873,1.95-0.873s1.354,0.262,1.825,0.787v-3.012h1.711V23.1h-1.711v-0.81
		C129.006,22.891,128.403,23.191,127.677,23.191z M126.6,20.042c0,0.495,0.148,0.899,0.444,1.215
		c0.297,0.316,0.643,0.474,1.038,0.474s0.732-0.158,1.01-0.474c0.277-0.315,0.416-0.722,0.416-1.22s-0.139-0.913-0.416-1.244
		c-0.277-0.331-0.618-0.496-1.021-0.496c-0.402,0-0.749,0.167-1.037,0.502C126.743,19.134,126.6,19.548,126.6,20.042z"/>
	<path fill="#231F20" d="M138.131,22.21c-0.691,0.654-1.504,0.981-2.435,0.981c-0.932,0-1.702-0.287-2.311-0.861
		s-0.912-1.344-0.912-2.31s0.31-1.734,0.93-2.304c0.619-0.57,1.352-0.855,2.195-0.855c0.845,0,1.562,0.255,2.15,0.764
		c0.59,0.509,0.884,1.209,0.884,2.099v0.913h-4.471c0.053,0.335,0.228,0.608,0.524,0.821s0.631,0.319,1.004,0.319
		c0.601,0,1.095-0.201,1.482-0.604L138.131,22.21z M136.488,18.571c-0.235-0.198-0.522-0.297-0.86-0.297
		c-0.339,0-0.648,0.103-0.93,0.308c-0.282,0.206-0.445,0.483-0.491,0.833h2.692C136.861,19.05,136.725,18.769,136.488,18.571z"/>
	<path fill="#231F20" d="M148.522,15.126v1.563h-3.695v1.723h3.513v1.563h-3.513V23.1h-1.779v-7.973H148.522z"/>
	<path fill="#231F20" d="M155.868,20.031c0,0.89-0.308,1.639-0.924,2.247c-0.615,0.608-1.39,0.913-2.321,0.913
		s-1.705-0.304-2.321-0.913c-0.615-0.608-0.924-1.357-0.924-2.247s0.309-1.641,0.924-2.253c0.616-0.612,1.39-0.918,2.321-0.918
		s1.706,0.306,2.321,0.918C155.561,18.391,155.868,19.142,155.868,20.031z M151.101,20.031c0,0.502,0.143,0.911,0.428,1.226
		c0.285,0.316,0.65,0.474,1.095,0.474c0.445,0,0.811-0.158,1.096-0.474c0.285-0.315,0.428-0.724,0.428-1.226
		s-0.143-0.913-0.428-1.232s-0.65-0.479-1.096-0.479c-0.444,0-0.81,0.16-1.095,0.479S151.101,19.529,151.101,20.031z"/>
	<path fill="#231F20" d="M160.363,18.469c-0.51,0-0.89,0.181-1.141,0.542c-0.251,0.361-0.377,0.838-0.377,1.432V23.1h-1.711v-6.137
		h1.711v0.81c0.221-0.25,0.497-0.463,0.827-0.639c0.331-0.175,0.668-0.266,1.01-0.273l0.012,1.608H160.363z"/>
	<path fill="#231F20" d="M167.458,19.792V23.1h-1.723v-3.354c0-0.487-0.074-0.844-0.223-1.072s-0.388-0.342-0.719-0.342
		s-0.624,0.124-0.878,0.371c-0.255,0.248-0.383,0.61-0.383,1.089V23.1h-1.711v-6.137h1.711v0.696
		c0.472-0.532,1.012-0.798,1.62-0.798c0.388,0,0.739,0.114,1.055,0.342c0.316,0.229,0.554,0.506,0.714,0.833
		c0.235-0.373,0.553-0.662,0.952-0.867c0.399-0.205,0.8-0.308,1.203-0.308c0.723,0,1.305,0.215,1.745,0.645
		c0.441,0.43,0.662,1.051,0.662,1.865v3.73h-1.723v-3.354c0-0.943-0.346-1.415-1.038-1.415c-0.342,0-0.639,0.124-0.89,0.371
		C167.583,18.95,167.458,19.313,167.458,19.792z"/>
	<path fill="#231F20" d="M178.248,23.1h-1.608v-0.741c-0.44,0.555-0.986,0.833-1.637,0.833s-1.195-0.188-1.637-0.564
		c-0.441-0.376-0.661-0.878-0.661-1.506s0.228-1.097,0.684-1.409c0.457-0.312,1.08-0.468,1.871-0.468h1.277V19.21
		c0-0.654-0.346-0.981-1.038-0.981c-0.296,0-0.61,0.059-0.94,0.177c-0.331,0.118-0.61,0.264-0.839,0.439l-0.764-1.106
		c0.806-0.585,1.726-0.878,2.76-0.878c0.745,0,1.354,0.186,1.825,0.559c0.472,0.373,0.707,0.962,0.707,1.768V23.1z M176.526,20.761
		v-0.296h-1.072c-0.685,0-1.027,0.213-1.027,0.639c0,0.221,0.082,0.39,0.245,0.507c0.164,0.118,0.397,0.177,0.702,0.177
		c0.304,0,0.572-0.093,0.804-0.28C176.41,21.322,176.526,21.073,176.526,20.761z"/>
	<path fill="#231F20" d="M181.784,18.195v2.749c0,0.236,0.061,0.42,0.183,0.553c0.121,0.133,0.267,0.2,0.434,0.2
		c0.319,0,0.589-0.145,0.81-0.434l0.639,1.198c-0.532,0.487-1.093,0.73-1.683,0.73c-0.589,0-1.087-0.194-1.494-0.582
		c-0.406-0.388-0.61-0.916-0.61-1.585v-2.829h-0.719v-1.232h0.719v-1.836h1.723v1.836h1.483v1.232H181.784z"/>
	<path fill="#231F20" d="M184.904,16.182c-0.193-0.194-0.291-0.432-0.291-0.713s0.098-0.519,0.291-0.713
		c0.194-0.194,0.432-0.291,0.713-0.291s0.52,0.097,0.713,0.291c0.194,0.194,0.291,0.432,0.291,0.713s-0.097,0.519-0.291,0.713
		c-0.193,0.194-0.432,0.291-0.713,0.291S185.099,16.375,184.904,16.182z M186.473,23.1h-1.711v-6.137h1.711V23.1z"/>
	<path fill="#231F20" d="M194.229,20.031c0,0.89-0.308,1.639-0.924,2.247c-0.615,0.608-1.39,0.913-2.321,0.913
		s-1.705-0.304-2.321-0.913c-0.615-0.608-0.924-1.357-0.924-2.247s0.309-1.641,0.924-2.253c0.616-0.612,1.39-0.918,2.321-0.918
		s1.706,0.306,2.321,0.918C193.921,18.391,194.229,19.142,194.229,20.031z M189.461,20.031c0,0.502,0.143,0.911,0.428,1.226
		c0.285,0.316,0.65,0.474,1.095,0.474c0.445,0,0.811-0.158,1.096-0.474c0.285-0.315,0.428-0.724,0.428-1.226
		s-0.143-0.913-0.428-1.232s-0.65-0.479-1.096-0.479c-0.444,0-0.81,0.16-1.095,0.479S189.461,19.529,189.461,20.031z"/>
	<path fill="#231F20" d="M197.206,19.678V23.1h-1.711v-6.137h1.711v0.685c0.518-0.525,1.1-0.787,1.746-0.787
		c0.646,0,1.188,0.228,1.625,0.684c0.438,0.457,0.656,1.065,0.656,1.825v3.73h-1.711v-3.468c0-0.943-0.347-1.414-1.038-1.414
		c-0.343,0-0.642,0.124-0.896,0.371C197.334,18.835,197.206,19.199,197.206,19.678z"/>
	<path fill="#231F20" d="M83.026,28.814h1.779v7.973h-1.779V28.814z"/>
	<path fill="#231F20" d="M88.25,33.366v3.422H86.54v-6.137h1.711v0.685c0.517-0.525,1.099-0.787,1.745-0.787
		s1.188,0.228,1.625,0.684c0.437,0.457,0.656,1.065,0.656,1.825v3.73h-1.711V33.32c0-0.943-0.346-1.414-1.038-1.414
		c-0.342,0-0.641,0.124-0.896,0.371S88.25,32.887,88.25,33.366z"/>
	<path fill="#231F20" d="M95.778,31.883v2.749c0,0.236,0.061,0.42,0.183,0.553s0.266,0.2,0.434,0.2c0.319,0,0.589-0.145,0.81-0.434
		l0.639,1.198c-0.533,0.487-1.093,0.73-1.683,0.73s-1.087-0.194-1.494-0.582c-0.407-0.388-0.61-0.916-0.61-1.585v-2.829h-0.719
		v-1.232h0.719v-1.836h1.722v1.836h1.483v1.232H95.778z"/>
	<path fill="#231F20" d="M104.071,35.898c-0.692,0.654-1.504,0.981-2.436,0.981s-1.702-0.287-2.31-0.861
		c-0.608-0.574-0.913-1.344-0.913-2.31s0.31-1.734,0.93-2.304c0.62-0.57,1.352-0.855,2.196-0.855c0.844,0,1.561,0.255,2.15,0.764
		s0.884,1.209,0.884,2.099v0.913h-4.472c0.053,0.335,0.228,0.608,0.525,0.821c0.296,0.213,0.631,0.319,1.004,0.319
		c0.601,0,1.095-0.201,1.483-0.604L104.071,35.898z M102.429,32.259c-0.236-0.198-0.523-0.297-0.861-0.297s-0.648,0.103-0.93,0.308
		c-0.281,0.206-0.445,0.483-0.49,0.833h2.692C102.801,32.738,102.664,32.457,102.429,32.259z"/>
	<path fill="#231F20" d="M109.033,32.157c-0.51,0-0.89,0.181-1.141,0.542c-0.251,0.361-0.376,0.838-0.376,1.432v2.658h-1.711v-6.137
		h1.711v0.81c0.22-0.25,0.496-0.463,0.827-0.639c0.331-0.175,0.667-0.266,1.01-0.273l0.011,1.608H109.033z"/>
	<path fill="#231F20" d="M110.447,34.119v-1.517h4.062v1.517H110.447z"/>
	<path fill="#231F20" d="M121.397,35.898c-0.691,0.654-1.504,0.981-2.435,0.981c-0.932,0-1.702-0.287-2.311-0.861
		s-0.912-1.344-0.912-2.31s0.31-1.734,0.93-2.304c0.619-0.57,1.352-0.855,2.195-0.855c0.845,0,1.562,0.255,2.15,0.764
		c0.59,0.509,0.884,1.209,0.884,2.099v0.913h-4.471c0.053,0.335,0.228,0.608,0.524,0.821s0.631,0.319,1.004,0.319
		c0.601,0,1.095-0.201,1.482-0.604L121.397,35.898z M119.755,32.259c-0.235-0.198-0.522-0.297-0.86-0.297
		c-0.339,0-0.648,0.103-0.93,0.308c-0.282,0.206-0.445,0.483-0.491,0.833h2.692C120.128,32.738,119.991,32.457,119.755,32.259z"/>
	<path fill="#231F20" d="M124.842,33.366v3.422h-1.711v-6.137h1.711v0.685c0.518-0.525,1.1-0.787,1.746-0.787
		c0.646,0,1.188,0.228,1.625,0.684c0.438,0.457,0.656,1.065,0.656,1.825v3.73h-1.711V33.32c0-0.943-0.347-1.414-1.038-1.414
		c-0.343,0-0.642,0.124-0.896,0.371C124.97,32.523,124.842,32.887,124.842,33.366z"/>
	<path fill="#231F20" d="M132.371,31.883v2.749c0,0.236,0.061,0.42,0.183,0.553c0.121,0.133,0.267,0.2,0.434,0.2
		c0.319,0,0.589-0.145,0.81-0.434l0.639,1.198c-0.532,0.487-1.093,0.73-1.683,0.73c-0.589,0-1.087-0.194-1.494-0.582
		c-0.406-0.388-0.61-0.916-0.61-1.585v-2.829h-0.719v-1.232h0.719v-1.836h1.723v1.836h1.483v1.232H132.371z"/>
	<path fill="#231F20" d="M138.576,32.157c-0.51,0-0.89,0.181-1.141,0.542c-0.251,0.361-0.377,0.838-0.377,1.432v2.658h-1.711v-6.137
		h1.711v0.81c0.221-0.25,0.497-0.463,0.827-0.639c0.331-0.175,0.668-0.266,1.01-0.273l0.012,1.608H138.576z"/>
	<path fill="#231F20" d="M145.352,35.898c-0.691,0.654-1.504,0.981-2.435,0.981c-0.932,0-1.702-0.287-2.311-0.861
		s-0.912-1.344-0.912-2.31s0.31-1.734,0.93-2.304c0.619-0.57,1.352-0.855,2.195-0.855c0.845,0,1.562,0.255,2.15,0.764
		c0.59,0.509,0.884,1.209,0.884,2.099v0.913h-4.471c0.053,0.335,0.228,0.608,0.524,0.821s0.631,0.319,1.004,0.319
		c0.601,0,1.095-0.201,1.482-0.604L145.352,35.898z M143.709,32.259c-0.235-0.198-0.522-0.297-0.86-0.297
		c-0.339,0-0.648,0.103-0.93,0.308c-0.282,0.206-0.445,0.483-0.491,0.833h2.692C144.082,32.738,143.945,32.457,143.709,32.259z"/>
	<path fill="#231F20" d="M150.655,30.548c0.715,0,1.352,0.298,1.911,0.895c0.559,0.597,0.838,1.348,0.838,2.253
		c0,0.905-0.279,1.662-0.838,2.27c-0.56,0.608-1.213,0.913-1.962,0.913s-1.352-0.3-1.809-0.901V39h-1.711v-8.35h1.711v0.685
		C149.321,30.811,149.94,30.548,150.655,30.548z M148.773,33.725c0,0.498,0.139,0.905,0.416,1.22
		c0.278,0.316,0.614,0.474,1.01,0.474s0.741-0.158,1.038-0.474c0.297-0.315,0.445-0.72,0.445-1.215c0-0.494-0.145-0.909-0.434-1.243
		s-0.636-0.502-1.038-0.502c-0.403,0-0.743,0.166-1.021,0.496C148.912,32.813,148.773,33.227,148.773,33.725z"/>
	<path fill="#231F20" d="M157.91,32.157c-0.51,0-0.89,0.181-1.141,0.542c-0.251,0.361-0.377,0.838-0.377,1.432v2.658h-1.711v-6.137
		h1.711v0.81c0.221-0.25,0.497-0.463,0.827-0.639c0.331-0.175,0.668-0.266,1.01-0.273l0.012,1.608H157.91z"/>
	<path fill="#231F20" d="M159.513,29.87c-0.193-0.194-0.291-0.432-0.291-0.713s0.098-0.519,0.291-0.713
		c0.194-0.194,0.432-0.291,0.713-0.291s0.52,0.097,0.713,0.291c0.194,0.194,0.291,0.432,0.291,0.713s-0.097,0.519-0.291,0.713
		c-0.193,0.194-0.432,0.291-0.713,0.291S159.707,30.063,159.513,29.87z M161.081,36.788h-1.711v-6.137h1.711V36.788z"/>
	<path fill="#231F20" d="M167.321,34.877c0,0.604-0.223,1.089-0.667,1.455c-0.445,0.365-1.01,0.547-1.694,0.547
		c-0.456,0-0.932-0.082-1.426-0.245c-0.494-0.164-0.939-0.405-1.335-0.725l0.753-1.072c0.639,0.495,1.319,0.742,2.042,0.742
		c0.221,0,0.396-0.044,0.524-0.131c0.13-0.087,0.194-0.203,0.194-0.348s-0.09-0.278-0.269-0.399s-0.437-0.236-0.775-0.342
		c-0.338-0.106-0.597-0.198-0.775-0.274c-0.179-0.076-0.382-0.186-0.61-0.331c-0.464-0.289-0.695-0.717-0.695-1.283
		s0.228-1.028,0.684-1.386c0.457-0.357,1.046-0.536,1.769-0.536s1.444,0.243,2.167,0.73l-0.639,1.141
		c-0.532-0.365-1.063-0.548-1.591-0.548c-0.529,0-0.793,0.145-0.793,0.434c0,0.16,0.083,0.285,0.251,0.376
		c0.167,0.091,0.444,0.198,0.832,0.319c0.389,0.122,0.664,0.215,0.827,0.28c0.164,0.064,0.359,0.165,0.588,0.302
		C167.108,33.841,167.321,34.272,167.321,34.877z"/>
	<path fill="#231F20" d="M173.947,35.898c-0.691,0.654-1.504,0.981-2.435,0.981c-0.932,0-1.702-0.287-2.311-0.861
		s-0.912-1.344-0.912-2.31s0.31-1.734,0.93-2.304c0.619-0.57,1.352-0.855,2.195-0.855c0.845,0,1.562,0.255,2.15,0.764
		c0.59,0.509,0.884,1.209,0.884,2.099v0.913h-4.471c0.053,0.335,0.228,0.608,0.524,0.821s0.631,0.319,1.004,0.319
		c0.601,0,1.095-0.201,1.482-0.604L173.947,35.898z M172.305,32.259c-0.235-0.198-0.522-0.297-0.86-0.297
		c-0.339,0-0.648,0.103-0.93,0.308c-0.282,0.206-0.445,0.483-0.491,0.833h2.692C172.678,32.738,172.541,32.457,172.305,32.259z"/>
</g>
<g>
	<g opacity="0.41">
		<g>
			<defs>
				<rect id="SVGID_13_" x="29.663" y="63.462" width="9.825" height="5.506"/>
			</defs>
			<clipPath id="SVGID_14_">
				<use xlink:href="#SVGID_13_"  overflow="visible"/>
			</clipPath>
			<g clip-path="url(#SVGID_14_)">
				<defs>
					<path id="SVGID_15_" d="M29.663,63.462c0.421,2.11,1.708,5.829,5.541,5.484c3.092-0.277,4.035-3.095,4.284-5.403
						c-0.058,0.221-0.166,0.439-0.297,0.605c-1.991,2.459-5.588,2.853-8.096,0.904c-0.298-0.231-0.561-0.512-0.855-0.747
						C29.939,64.065,29.769,63.776,29.663,63.462z"/>
				</defs>
				<clipPath id="SVGID_16_">
					<use xlink:href="#SVGID_15_"  overflow="visible"/>
				</clipPath>
				<defs>
					<filter id="Adobe_OpacityMaskFilter" filterUnits="userSpaceOnUse" x="29.663" y="63.462" width="9.825" height="5.829">
						<feColorMatrix  type="matrix" values="1 0 0 0 0  0 1 0 0 0  0 0 1 0 0  0 0 0 1 0"/>
					</filter>
				</defs>
				<mask maskUnits="userSpaceOnUse" x="29.663" y="63.462" width="9.825" height="5.829" id="SVGID_17_">
					<g filter="url(#Adobe_OpacityMaskFilter)">
						
							<linearGradient id="SVGID_18_" gradientUnits="userSpaceOnUse" x1="-79.2598" y1="553.0488" x2="-78.4166" y2="553.0488" gradientTransform="matrix(0 -6.5298 -6.5298 0 3645.875 -448.5742)">
							<stop  offset="0" style="stop-color:#FFFFFF"/>
							<stop  offset="0.1253" style="stop-color:#FBFBFB"/>
							<stop  offset="0.2496" style="stop-color:#EFEFEF"/>
							<stop  offset="0.3736" style="stop-color:#DBDBDB"/>
							<stop  offset="0.4974" style="stop-color:#BFBFBF"/>
							<stop  offset="0.6211" style="stop-color:#9B9B9B"/>
							<stop  offset="0.7449" style="stop-color:#6F6F6F"/>
							<stop  offset="0.8669" style="stop-color:#3B3B3B"/>
							<stop  offset="0.9888" style="stop-color:#000000"/>
							<stop  offset="1" style="stop-color:#000000"/>
						</linearGradient>
						<rect x="29.663" y="63.462" clip-path="url(#SVGID_16_)" fill="url(#SVGID_18_)" width="9.825" height="5.829"/>
					</g>
				</mask>
				
					<linearGradient id="SVGID_19_" gradientUnits="userSpaceOnUse" x1="-79.2598" y1="553.0488" x2="-78.4166" y2="553.0488" gradientTransform="matrix(0 -6.5298 -6.5298 0 3645.875 -448.5742)">
					<stop  offset="0" style="stop-color:#000000"/>
					<stop  offset="0.0864" style="stop-color:#070707"/>
					<stop  offset="0.2143" style="stop-color:#1B1B1B"/>
					<stop  offset="0.3681" style="stop-color:#3C3C3C"/>
					<stop  offset="0.5421" style="stop-color:#6A6A6A"/>
					<stop  offset="0.7329" style="stop-color:#A5A5A5"/>
					<stop  offset="0.9349" style="stop-color:#EBEBEB"/>
					<stop  offset="0.9888" style="stop-color:#FFFFFF"/>
					<stop  offset="1" style="stop-color:#FFFFFF"/>
				</linearGradient>
				
					<rect x="29.663" y="63.462" clip-path="url(#SVGID_16_)" mask="url(#SVGID_17_)" fill="url(#SVGID_19_)" width="9.825" height="5.829"/>
			</g>
		</g>
	</g>
	<g opacity="0.57">
		<g>
			<defs>
				<rect id="SVGID_20_" x="8.648" y="3.513" width="7.376" height="30.686"/>
			</defs>
			<clipPath id="SVGID_21_">
				<use xlink:href="#SVGID_20_"  overflow="visible"/>
			</clipPath>
			<g clip-path="url(#SVGID_21_)">
				<defs>
					<path id="SVGID_22_" d="M10.726,3.739c-1.16,3.63-2.056,7.827-2.077,12.158v0.322c0.027,5.365,1.416,10.927,5.322,15.87
						c0.61,0.774,1.303,1.477,2.055,2.111c-0.777-0.97-1.468-2.019-2.056-3.155c-2.39-4.62-2.839-9.546-2.105-14.591
						c0.417-2.852,1.141-5.66,1.72-8.49c0.178-0.873,0.406-1.746,0.481-2.628c0.094-1.09-0.544-1.734-1.635-1.812
						c-0.105-0.007-0.209-0.01-0.312-0.01C11.629,3.513,11.167,3.596,10.726,3.739"/>
				</defs>
				<clipPath id="SVGID_23_">
					<use xlink:href="#SVGID_22_"  overflow="visible"/>
				</clipPath>
				<defs>
					<filter id="Adobe_OpacityMaskFilter_1_" filterUnits="userSpaceOnUse" x="8.648" y="3.513" width="7.376" height="30.686">
						<feColorMatrix  type="matrix" values="1 0 0 0 0  0 1 0 0 0  0 0 1 0 0  0 0 0 1 0"/>
					</filter>
				</defs>
				<mask maskUnits="userSpaceOnUse" x="8.648" y="3.513" width="7.376" height="30.686" id="SVGID_24_">
					<g filter="url(#Adobe_OpacityMaskFilter_1_)">
						
							<linearGradient id="SVGID_25_" gradientUnits="userSpaceOnUse" x1="-169.3257" y1="569.7422" x2="-168.4824" y2="569.7422" gradientTransform="matrix(8.7482 0 0 -8.7482 1489.9531 5003.0625)">
							<stop  offset="0" style="stop-color:#B3B3B3"/>
							<stop  offset="0.0223" style="stop-color:#B3B3B3"/>
							<stop  offset="0.1049" style="stop-color:#9F9F9F"/>
							<stop  offset="0.2906" style="stop-color:#787878"/>
							<stop  offset="0.4747" style="stop-color:#5A5A5A"/>
							<stop  offset="0.6546" style="stop-color:#444444"/>
							<stop  offset="0.8283" style="stop-color:#373737"/>
							<stop  offset="0.9888" style="stop-color:#333333"/>
							<stop  offset="1" style="stop-color:#333333"/>
						</linearGradient>
						<rect x="6.829" y="3.48" clip-path="url(#SVGID_23_)" fill="url(#SVGID_25_)" width="9.196" height="30.719"/>
					</g>
				</mask>
				
					<linearGradient id="SVGID_26_" gradientUnits="userSpaceOnUse" x1="-169.3252" y1="569.7422" x2="-168.4824" y2="569.7422" gradientTransform="matrix(8.7482 0 0 -8.7482 1489.9453 5003.0703)">
					<stop  offset="0" style="stop-color:#000000"/>
					<stop  offset="0.0223" style="stop-color:#000000"/>
					<stop  offset="0.0936" style="stop-color:#2D2D2D"/>
					<stop  offset="0.1821" style="stop-color:#5E5E5E"/>
					<stop  offset="0.2755" style="stop-color:#898989"/>
					<stop  offset="0.3721" style="stop-color:#ADADAD"/>
					<stop  offset="0.4728" style="stop-color:#CBCBCB"/>
					<stop  offset="0.5789" style="stop-color:#E2E2E2"/>
					<stop  offset="0.6929" style="stop-color:#F2F2F2"/>
					<stop  offset="0.8203" style="stop-color:#FCFCFC"/>
					<stop  offset="0.9888" style="stop-color:#FFFFFF"/>
					<stop  offset="1" style="stop-color:#FFFFFF"/>
				</linearGradient>
				
					<rect x="8.648" y="3.513" clip-path="url(#SVGID_23_)" mask="url(#SVGID_24_)" fill="url(#SVGID_26_)" width="7.376" height="30.686"/>
			</g>
		</g>
	</g>
	<g opacity="0.47">
		<g>
			<defs>
				<rect id="SVGID_27_" x="35.235" y="40.897" width="24.124" height="25.112"/>
			</defs>
			<clipPath id="SVGID_28_">
				<use xlink:href="#SVGID_27_"  overflow="visible"/>
			</clipPath>
			<g clip-path="url(#SVGID_28_)">
				<defs>
					<path id="SVGID_29_" d="M47.368,40.899c-5.788,0.034-10.08,3.73-12.133,5.946l0.003-0.002c0.243-0.214,0.489-0.422,0.74-0.621
						c0.014-0.011,0.027-0.023,0.04-0.033c1.546-1.231,3.257-2.202,5.167-2.835c2.392-0.794,4.806-0.98,7.215-0.092
						c4.128,1.523,6.96,5.521,7.117,9.972c0.074,2.118-0.258,4.194-0.581,6.275c-0.193,1.24-0.413,2.477-0.239,3.744
						c0.225,1.642,1.63,2.748,3.141,2.757h0.048c0.295-0.002,0.595-0.048,0.89-0.139c-1.473-2.56-0.172-5.987-0.172-5.987
						c0.518-1.71,0.744-3.312,0.756-4.801v-0.238c-0.04-4.89-2.392-8.528-4.318-10.69c-1.595-1.79-3.799-2.943-6.183-3.185
						c-0.446-0.046-0.886-0.069-1.316-0.071H47.368z"/>
				</defs>
				<clipPath id="SVGID_30_">
					<use xlink:href="#SVGID_29_"  overflow="visible"/>
				</clipPath>
				<defs>
					<filter id="Adobe_OpacityMaskFilter_2_" filterUnits="userSpaceOnUse" x="35.235" y="40.899" width="24.124" height="25.11">
						<feColorMatrix  type="matrix" values="1 0 0 0 0  0 1 0 0 0  0 0 1 0 0  0 0 0 1 0"/>
					</filter>
				</defs>
				<mask maskUnits="userSpaceOnUse" x="35.235" y="40.899" width="24.124" height="25.11" id="SVGID_31_">
					<g filter="url(#Adobe_OpacityMaskFilter_2_)">
						
							<linearGradient id="SVGID_32_" gradientUnits="userSpaceOnUse" x1="-153.2998" y1="536.1396" x2="-152.457" y2="536.1396" gradientTransform="matrix(28.6076 0 0 -28.6076 4420.7813 15391.0313)">
							<stop  offset="0" style="stop-color:#000000"/>
							<stop  offset="0.0112" style="stop-color:#000000"/>
							<stop  offset="1" style="stop-color:#FFFFFF"/>
						</linearGradient>
						<rect x="35.235" y="40.303" clip-path="url(#SVGID_30_)" fill="url(#SVGID_32_)" width="25.626" height="26.129"/>
					</g>
				</mask>
				
					<linearGradient id="SVGID_33_" gradientUnits="userSpaceOnUse" x1="-153.2993" y1="536.1367" x2="-152.4561" y2="536.1367" gradientTransform="matrix(28.6076 0 0 -28.6076 4420.7656 15391.0625)">
					<stop  offset="0" style="stop-color:#FFFFFF"/>
					<stop  offset="0.0112" style="stop-color:#FFFFFF"/>
					<stop  offset="0.1028" style="stop-color:#F9F9F9"/>
					<stop  offset="0.2266" style="stop-color:#E8E8E8"/>
					<stop  offset="0.3689" style="stop-color:#CBCBCB"/>
					<stop  offset="0.5248" style="stop-color:#A4A4A4"/>
					<stop  offset="0.6919" style="stop-color:#717171"/>
					<stop  offset="0.8656" style="stop-color:#343434"/>
					<stop  offset="1" style="stop-color:#000000"/>
				</linearGradient>
				
					<rect x="35.235" y="40.899" clip-path="url(#SVGID_30_)" mask="url(#SVGID_31_)" fill="url(#SVGID_33_)" width="24.124" height="25.11"/>
			</g>
		</g>
	</g>
</g>
<g>
	<defs>
		<rect id="SVGID_34_" x="73.825" y="14.783" width="1.089" height="37.452"/>
	</defs>
	<clipPath id="SVGID_35_">
		<use xlink:href="#SVGID_34_"  overflow="visible"/>
	</clipPath>
	
		<linearGradient id="SVGID_36_" gradientUnits="userSpaceOnUse" x1="-136.2637" y1="516.127" x2="-135.4204" y2="516.127" gradientTransform="matrix(0 -44.4142 44.4142 0 -22849 -5999.8438)">
		<stop  offset="0" style="stop-color:#1879B9"/>
		<stop  offset="0.2016" style="stop-color:#187AB5"/>
		<stop  offset="0.3884" style="stop-color:#187EAA"/>
		<stop  offset="0.5693" style="stop-color:#188497"/>
		<stop  offset="0.7466" style="stop-color:#188C7D"/>
		<stop  offset="0.9197" style="stop-color:#18975B"/>
		<stop  offset="1" style="stop-color:#189D49"/>
	</linearGradient>
	<rect x="73.825" y="14.783" clip-path="url(#SVGID_35_)" fill="url(#SVGID_36_)" width="1.089" height="37.452"/>
</g>
<g>
	<linearGradient id="SVGID_37_" gradientUnits="userSpaceOnUse" x1="84.3555" y1="52.5972" x2="88.1351" y2="46.0506">
		<stop  offset="0" style="stop-color:#1F76BC"/>
		<stop  offset="0.1426" style="stop-color:#1F7AB0"/>
		<stop  offset="0.3982" style="stop-color:#1E8391"/>
		<stop  offset="0.7351" style="stop-color:#1D935F"/>
		<stop  offset="0.8771" style="stop-color:#1C9A48"/>
		<stop  offset="1" style="stop-color:#1C9A48"/>
	</linearGradient>
	<path fill="url(#SVGID_37_)" d="M86.245,51.561c0.792,0,1.438-0.313,1.94-0.939l1.032,1.063c-0.818,0.922-1.784,1.383-2.895,1.383
		c-1.111,0-2.026-0.351-2.745-1.053c-0.719-0.702-1.079-1.587-1.079-2.658c0-1.07,0.366-1.962,1.099-2.678
		c0.733-0.715,1.629-1.073,2.688-1.073c1.183,0,2.174,0.45,2.972,1.352l-1.001,1.135c-0.509-0.633-1.142-0.95-1.899-0.95
		c-0.605,0-1.124,0.198-1.553,0.594c-0.43,0.396-0.645,0.929-0.645,1.6c0,0.671,0.203,1.209,0.609,1.615
		C85.175,51.358,85.667,51.561,86.245,51.561z"/>
	<linearGradient id="SVGID_38_" gradientUnits="userSpaceOnUse" x1="89.5933" y1="52.7676" x2="93.9553" y2="45.2123">
		<stop  offset="0" style="stop-color:#1F76BC"/>
		<stop  offset="0.1426" style="stop-color:#1F7AB0"/>
		<stop  offset="0.3982" style="stop-color:#1E8391"/>
		<stop  offset="0.7351" style="stop-color:#1D935F"/>
		<stop  offset="0.8771" style="stop-color:#1C9A48"/>
		<stop  offset="1" style="stop-color:#1C9A48"/>
	</linearGradient>
	<path fill="url(#SVGID_38_)" d="M94.925,45.771v1.414h-3.344v1.558h3.179v1.415h-3.179v2.828h-1.61v-7.214H94.925z"/>
	<linearGradient id="SVGID_39_" gradientUnits="userSpaceOnUse" x1="94.814" y1="52.4326" x2="98.34" y2="46.3254">
		<stop  offset="0" style="stop-color:#1F76BC"/>
		<stop  offset="0.1426" style="stop-color:#1F7AB0"/>
		<stop  offset="0.3982" style="stop-color:#1E8391"/>
		<stop  offset="0.7351" style="stop-color:#1D935F"/>
		<stop  offset="0.8771" style="stop-color:#1C9A48"/>
		<stop  offset="1" style="stop-color:#1C9A48"/>
	</linearGradient>
	<path fill="url(#SVGID_39_)" d="M95.771,45.771h1.61v7.214h-1.61V45.771z"/>
	<linearGradient id="SVGID_40_" gradientUnits="userSpaceOnUse" x1="100.6289" y1="52.8584" x2="104.7316" y2="45.7524">
		<stop  offset="0" style="stop-color:#1F76BC"/>
		<stop  offset="0.1426" style="stop-color:#1F7AB0"/>
		<stop  offset="0.3982" style="stop-color:#1E8391"/>
		<stop  offset="0.7351" style="stop-color:#1D935F"/>
		<stop  offset="0.8771" style="stop-color:#1C9A48"/>
		<stop  offset="1" style="stop-color:#1C9A48"/>
	</linearGradient>
	<path fill="url(#SVGID_40_)" d="M105.817,46.416c0.506,0.43,0.759,1.091,0.759,1.982s-0.26,1.542-0.779,1.956
		c-0.52,0.413-1.313,0.619-2.379,0.619h-0.96v2.013h-1.61v-7.214h2.549C104.505,45.771,105.312,45.986,105.817,46.416z
		 M104.636,49.254c0.192-0.217,0.289-0.533,0.289-0.95c0-0.416-0.125-0.712-0.376-0.888c-0.251-0.175-0.642-0.263-1.172-0.263
		h-0.918v2.426h1.084C104.079,49.58,104.443,49.471,104.636,49.254z"/>
	<linearGradient id="SVGID_41_" gradientUnits="userSpaceOnUse" x1="106.0869" y1="52.3633" x2="109.7898" y2="45.9497">
		<stop  offset="0" style="stop-color:#1F76BC"/>
		<stop  offset="0.1426" style="stop-color:#1F7AB0"/>
		<stop  offset="0.3982" style="stop-color:#1E8391"/>
		<stop  offset="0.7351" style="stop-color:#1D935F"/>
		<stop  offset="0.8771" style="stop-color:#1C9A48"/>
		<stop  offset="1" style="stop-color:#1C9A48"/>
	</linearGradient>
	<path fill="url(#SVGID_41_)" d="M108.712,52.985h-1.548v-7.658h1.548V52.985z"/>
	<linearGradient id="SVGID_42_" gradientUnits="userSpaceOnUse" x1="110.5957" y1="52.9639" x2="113.6086" y2="47.7453">
		<stop  offset="0" style="stop-color:#1F76BC"/>
		<stop  offset="0.1426" style="stop-color:#1F7AB0"/>
		<stop  offset="0.3982" style="stop-color:#1E8391"/>
		<stop  offset="0.7351" style="stop-color:#1D935F"/>
		<stop  offset="0.8771" style="stop-color:#1C9A48"/>
		<stop  offset="1" style="stop-color:#1C9A48"/>
	</linearGradient>
	<path fill="url(#SVGID_42_)" d="M114.377,52.985h-1.454v-0.671c-0.399,0.502-0.894,0.753-1.481,0.753
		c-0.588,0-1.082-0.17-1.481-0.511c-0.399-0.34-0.598-0.794-0.598-1.362c0-0.567,0.207-0.992,0.619-1.274
		c0.413-0.282,0.977-0.423,1.693-0.423h1.155v-0.031c0-0.591-0.313-0.887-0.938-0.887c-0.269,0-0.553,0.053-0.852,0.16
		c-0.3,0.107-0.553,0.239-0.759,0.397l-0.691-1.001c0.729-0.53,1.562-0.794,2.497-0.794c0.675,0,1.225,0.168,1.651,0.506
		c0.427,0.337,0.64,0.87,0.64,1.599V52.985z M112.82,50.87v-0.269h-0.971c-0.619,0-0.929,0.193-0.929,0.578
		c0,0.199,0.074,0.353,0.222,0.459c0.148,0.107,0.359,0.16,0.634,0.16s0.518-0.084,0.728-0.253
		C112.714,51.376,112.82,51.152,112.82,50.87z"/>
	<linearGradient id="SVGID_43_" gradientUnits="userSpaceOnUse" x1="115.8037" y1="52.8105" x2="118.7794" y2="47.6565">
		<stop  offset="0" style="stop-color:#1F76BC"/>
		<stop  offset="0.1426" style="stop-color:#1F7AB0"/>
		<stop  offset="0.3982" style="stop-color:#1E8391"/>
		<stop  offset="0.7351" style="stop-color:#1D935F"/>
		<stop  offset="0.8771" style="stop-color:#1C9A48"/>
		<stop  offset="1" style="stop-color:#1C9A48"/>
	</linearGradient>
	<path fill="url(#SVGID_43_)" d="M119.456,51.256c0,0.547-0.201,0.985-0.604,1.316s-0.914,0.496-1.533,0.496
		c-0.412,0-0.843-0.074-1.29-0.222s-0.85-0.366-1.207-0.655l0.681-0.97c0.578,0.447,1.194,0.67,1.848,0.67
		c0.199,0,0.357-0.04,0.475-0.119S118,51.588,118,51.458c0-0.13-0.081-0.251-0.242-0.361c-0.162-0.11-0.396-0.213-0.702-0.309
		c-0.307-0.096-0.54-0.179-0.702-0.248c-0.161-0.069-0.346-0.168-0.552-0.299c-0.42-0.262-0.63-0.648-0.63-1.161
		c0-0.512,0.207-0.93,0.619-1.253c0.413-0.324,0.946-0.485,1.6-0.485c0.654,0,1.308,0.22,1.961,0.661l-0.578,1.032
		c-0.481-0.331-0.961-0.496-1.439-0.496s-0.717,0.131-0.717,0.392c0,0.145,0.075,0.258,0.227,0.34s0.402,0.179,0.754,0.29
		c0.351,0.11,0.6,0.194,0.748,0.253c0.147,0.058,0.325,0.149,0.531,0.273C119.263,50.319,119.456,50.709,119.456,51.256z"/>
	<linearGradient id="SVGID_44_" gradientUnits="userSpaceOnUse" x1="120.2744" y1="52.2295" x2="123.4852" y2="46.6682">
		<stop  offset="0" style="stop-color:#1F76BC"/>
		<stop  offset="0.1426" style="stop-color:#1F7AB0"/>
		<stop  offset="0.3982" style="stop-color:#1E8391"/>
		<stop  offset="0.7351" style="stop-color:#1D935F"/>
		<stop  offset="0.8771" style="stop-color:#1C9A48"/>
		<stop  offset="1" style="stop-color:#1C9A48"/>
	</linearGradient>
	<path fill="url(#SVGID_44_)" d="M121.932,48.547v2.487c0,0.213,0.055,0.38,0.165,0.5c0.11,0.121,0.241,0.18,0.393,0.18
		c0.289,0,0.533-0.13,0.732-0.392l0.578,1.083c-0.481,0.44-0.989,0.661-1.522,0.661s-0.983-0.175-1.352-0.526
		s-0.553-0.829-0.553-1.435v-2.559h-0.649v-1.114h0.649v-1.662h1.559v1.662h1.342v1.114H121.932z"/>
	<linearGradient id="SVGID_45_" gradientUnits="userSpaceOnUse" x1="125.1372" y1="52.8286" x2="128.5016" y2="47.0013">
		<stop  offset="0" style="stop-color:#1F76BC"/>
		<stop  offset="0.1426" style="stop-color:#1F7AB0"/>
		<stop  offset="0.3982" style="stop-color:#1E8391"/>
		<stop  offset="0.7351" style="stop-color:#1D935F"/>
		<stop  offset="0.8771" style="stop-color:#1C9A48"/>
		<stop  offset="1" style="stop-color:#1C9A48"/>
	</linearGradient>
	<path fill="url(#SVGID_45_)" d="M127.691,50.426v-2.993h1.559v5.552h-1.559v-0.733c-0.386,0.544-0.882,0.816-1.491,0.816
		s-1.12-0.191-1.533-0.573c-0.412-0.381-0.619-0.948-0.619-1.697v-3.364h1.559v3.023c0,0.854,0.313,1.28,0.939,1.28
		c0.31,0,0.578-0.112,0.805-0.336C127.578,51.177,127.691,50.852,127.691,50.426z"/>
	<linearGradient id="SVGID_46_" gradientUnits="userSpaceOnUse" x1="129.5771" y1="52.6265" x2="132.8242" y2="47.0024">
		<stop  offset="0" style="stop-color:#1F76BC"/>
		<stop  offset="0.1426" style="stop-color:#1F7AB0"/>
		<stop  offset="0.3982" style="stop-color:#1E8391"/>
		<stop  offset="0.7351" style="stop-color:#1D935F"/>
		<stop  offset="0.8771" style="stop-color:#1C9A48"/>
		<stop  offset="1" style="stop-color:#1C9A48"/>
	</linearGradient>
	<path fill="url(#SVGID_46_)" d="M133.12,48.795c-0.462,0-0.806,0.164-1.032,0.491c-0.228,0.326-0.341,0.758-0.341,1.294v2.405
		h-1.548v-5.552h1.548v0.732c0.199-0.227,0.449-0.419,0.749-0.578c0.299-0.158,0.603-0.24,0.913-0.248l0.01,1.455H133.12z"/>
	<linearGradient id="SVGID_47_" gradientUnits="userSpaceOnUse" x1="134.4717" y1="54.7173" x2="138.848" y2="47.1372">
		<stop  offset="0" style="stop-color:#1F76BC"/>
		<stop  offset="0.1426" style="stop-color:#1F7AB0"/>
		<stop  offset="0.3982" style="stop-color:#1E8391"/>
		<stop  offset="0.7351" style="stop-color:#1D935F"/>
		<stop  offset="0.8771" style="stop-color:#1C9A48"/>
		<stop  offset="1" style="stop-color:#1C9A48"/>
	</linearGradient>
	<path fill="url(#SVGID_47_)" d="M138.032,52.046c-0.488,0.543-1.096,0.815-1.821,0.815s-1.338-0.246-1.837-0.738
		s-0.749-1.149-0.749-1.972c0-0.822,0.257-1.496,0.77-2.022c0.512-0.526,1.099-0.79,1.76-0.79c0.66,0,1.207,0.272,1.641,0.815
		v-0.733h1.548v4.84c0,0.496-0.086,0.936-0.258,1.322c-0.172,0.385-0.402,0.688-0.691,0.908c-0.571,0.454-1.246,0.682-2.022,0.682
		c-0.413,0-0.835-0.067-1.265-0.202c-0.431-0.134-0.807-0.325-1.13-0.573l0.599-1.166c0.509,0.385,1.047,0.578,1.615,0.578
		c0.567,0,1.017-0.141,1.347-0.423C137.867,53.105,138.032,52.658,138.032,52.046z M137.815,50.09c0-0.444-0.124-0.793-0.371-1.047
		c-0.248-0.255-0.554-0.382-0.919-0.382s-0.68,0.127-0.944,0.382c-0.265,0.254-0.397,0.602-0.397,1.042
		c0,0.44,0.129,0.796,0.387,1.068c0.259,0.272,0.573,0.408,0.944,0.408c0.372,0,0.682-0.134,0.93-0.403
		C137.691,50.89,137.815,50.534,137.815,50.09z"/>
	<linearGradient id="SVGID_48_" gradientUnits="userSpaceOnUse" x1="139.272" y1="52.3965" x2="142.9119" y2="46.092">
		<stop  offset="0" style="stop-color:#1F76BC"/>
		<stop  offset="0.1426" style="stop-color:#1F7AB0"/>
		<stop  offset="0.3982" style="stop-color:#1E8391"/>
		<stop  offset="0.7351" style="stop-color:#1D935F"/>
		<stop  offset="0.8771" style="stop-color:#1C9A48"/>
		<stop  offset="1" style="stop-color:#1C9A48"/>
	</linearGradient>
	<path fill="url(#SVGID_48_)" d="M140.42,46.726c-0.175-0.175-0.263-0.39-0.263-0.645c0-0.254,0.088-0.469,0.263-0.645
		c0.176-0.176,0.391-0.263,0.646-0.263c0.254,0,0.47,0.087,0.645,0.263c0.176,0.175,0.264,0.39,0.264,0.645
		c0,0.255-0.088,0.47-0.264,0.645c-0.175,0.175-0.391,0.263-0.645,0.263C140.811,46.989,140.596,46.901,140.42,46.726z
		 M141.839,52.985h-1.548v-5.552h1.548V52.985z"/>
	<linearGradient id="SVGID_49_" gradientUnits="userSpaceOnUse" x1="143.9053" y1="52.7236" x2="146.7996" y2="47.7106">
		<stop  offset="0" style="stop-color:#1F76BC"/>
		<stop  offset="0.1426" style="stop-color:#1F7AB0"/>
		<stop  offset="0.3982" style="stop-color:#1E8391"/>
		<stop  offset="0.7351" style="stop-color:#1D935F"/>
		<stop  offset="0.8771" style="stop-color:#1C9A48"/>
		<stop  offset="1" style="stop-color:#1C9A48"/>
	</linearGradient>
	<path fill="url(#SVGID_49_)" d="M147.598,52.18c-0.626,0.592-1.36,0.888-2.203,0.888s-1.539-0.26-2.09-0.779
		s-0.825-1.216-0.825-2.09c0-0.874,0.279-1.569,0.841-2.085c0.561-0.516,1.223-0.774,1.986-0.774s1.412,0.23,1.945,0.691
		c0.533,0.461,0.8,1.094,0.8,1.899v0.826h-4.045c0.048,0.303,0.206,0.551,0.475,0.743c0.269,0.193,0.57,0.289,0.908,0.289
		c0.543,0,0.99-0.182,1.342-0.547L147.598,52.18z M146.113,48.888c-0.214-0.179-0.474-0.268-0.779-0.268
		c-0.307,0-0.587,0.093-0.842,0.278c-0.254,0.186-0.402,0.437-0.443,0.754h2.436C146.45,49.321,146.326,49.067,146.113,48.888z"/>
</g>
</svg>
